<svg width="100" height="100" viewBox="0 0 100 100" fill="none" xmlns="http://www.w3.org/2000/svg">
  <polygon points="50,3 93,27 93,73 50,97 7,73 7,27" fill="#e8ecf0" stroke="#aab4c0" stroke-width="2"/>
  <polygon points="50,10 87,30 87,70 50,90 13,70 13,30" fill="#f4f7f9"/>
  <polygon points="50,10 13,30 13,70 50,50" fill="#1aaa96" opacity="0.22"/>
  <polygon points="50,10 87,30 50,50" fill="#b8845a" opacity="0.22"/>
  <polygon points="13,70 50,50 50,90" fill="#b8845a" opacity="0.22"/>
  <polygon points="50,50 87,70 50,90" fill="#1aaa96" opacity="0.22"/>
  <line x1="13" y1="30" x2="50" y2="50" stroke="#1aaa96" stroke-width="1" opacity="0.4"/>
  <line x1="87" y1="30" x2="50" y2="50" stroke="#b8845a" stroke-width="1" opacity="0.4"/>
  <line x1="13" y1="70" x2="50" y2="50" stroke="#b8845a" stroke-width="1" opacity="0.4"/>
  <line x1="87" y1="70" x2="50" y2="50" stroke="#1aaa96" stroke-width="1" opacity="0.4"/>
  <path d="M23 65 L54 34" stroke="white" stroke-width="8" stroke-linecap="round"/>
  <path d="M54 34 L54 48" stroke="white" stroke-width="8" stroke-linecap="round"/>
  <path d="M54 34 L40 34" stroke="white" stroke-width="8" stroke-linecap="round"/>
  <path d="M23 65 L54 34" stroke="#d0d8e0" stroke-width="4" stroke-linecap="round"/>
  <path d="M54 34 L54 48" stroke="#d0d8e0" stroke-width="4" stroke-linecap="round"/>
  <path d="M54 34 L40 34" stroke="#d0d8e0" stroke-width="4" stroke-linecap="round"/>
  <circle cx="28" cy="35" r="2" fill="#1aaa96" opacity="0.7"/>
  <circle cx="35" cy="28" r="1.5" fill="#1aaa96" opacity="0.7"/>
  <circle cx="72" cy="35" r="2" fill="#b8845a" opacity="0.7"/>
  <circle cx="72" cy="65" r="2" fill="#1aaa96" opacity="0.7"/>
  <circle cx="28" cy="65" r="2" fill="#b8845a" opacity="0.7"/>
  <polygon points="50,3 93,27 93,73 50,97 7,73 7,27" fill="none" stroke="rgba(255,255,255,0.5)" stroke-width="1"/>
</svg>
